STARTFONT 2.1
COMMENT Copyright (C) 1990-1991 EWT Consulting
COMMENT Portions Copyright (C) 1994-1995 Cronyx Ltd.
COMMENT Changes Copyright (C) 1996-1997 by Andrey A. Chernov, Moscow, Russia.
COMMENT Modified by Serge Vakulenko, <vak@cronyx.ru>
COMMENT Changes 1999 by Serge Winitzki.
COMMENT This software may be used, modified, copied, distributed, and sold,
COMMENT in both source and binary form provided that the copyright
COMMENT and these terms are retained. Under no circumstances is the author
COMMENT responsible for the proper functioning of this software, nor does
COMMENT the author assume any responsibility for damages incurred with its use.
COMMENT $XFree86$
FONT -Cronyx-Courier-Medium-R-Normal--17-120-100-100-M-90-KOI8-R
SIZE 12 96 96
FONTBOUNDINGBOX 9 15 0 -3
STARTPROPERTIES 21
DEFAULT_CHAR 32
FONT_ASCENT 13
FONT_DESCENT 3
SPACING "M"
FONTNAME_REGISTRY ""
FOUNDRY "Cronyx"
FAMILY_NAME "Courier"
WEIGHT_NAME "Medium"
SLANT "R"
SETWIDTH_NAME "Normal"
ADD_STYLE_NAME ""
AVERAGE_WIDTH 90
CHARSET_REGISTRY "KOI8"
CHARSET_ENCODING "R"
PIXEL_SIZE 17
POINT_SIZE 120
RESOLUTION_X 100
RESOLUTION_Y 100
COPYRIGHT "Copyright (C) 1990, 1991 EWT Consulting, Portions Copyright (C) 1994 Cronyx Ltd., Portions Copyright (C) 1996-1997 by Andrey A. Chernov, Moscow, Russia."
_XMBDFED_INFO "Edited with xmbdfed 4.3."
_XFREE86_GLYPH_RANGES "32_126 149 154 156_158 163 179 191_255"
ENDPROPERTIES
CHARS 167
STARTCHAR space
ENCODING 32
SWIDTH 562 0
DWIDTH 9 0
BBX 0 0 0 0
BITMAP
ENDCHAR
STARTCHAR exclam
ENCODING 33
SWIDTH 562 0
DWIDTH 9 0
BBX 1 10 4 0
BITMAP
80
80
80
80
80
80
80
80
00
80
ENDCHAR
STARTCHAR quotedbl
ENCODING 34
SWIDTH 562 0
DWIDTH 9 0
BBX 4 4 3 6
BITMAP
90
90
90
90
ENDCHAR
STARTCHAR numbersign
ENCODING 35
SWIDTH 562 0
DWIDTH 9 0
BBX 8 10 1 0
BITMAP
12
12
12
7F
24
24
FE
48
48
48
ENDCHAR
STARTCHAR dollar
ENCODING 36
SWIDTH 562 0
DWIDTH 9 0
BBX 7 12 1 -2
BITMAP
10
7C
82
80
80
7C
02
02
82
7C
10
10
ENDCHAR
STARTCHAR percent
ENCODING 37
SWIDTH 562 0
DWIDTH 9 0
BBX 8 10 1 0
BITMAP
60
91
62
04
08
10
20
46
89
06
ENDCHAR
STARTCHAR ampersand
ENCODING 38
SWIDTH 562 0
DWIDTH 9 0
BBX 8 10 1 0
BITMAP
38
44
40
40
20
50
89
86
86
79
ENDCHAR
STARTCHAR quotesingle
ENCODING 39
SWIDTH 562 0
DWIDTH 9 0
BBX 1 4 4 6
BITMAP
80
80
80
80
ENDCHAR
STARTCHAR parenleft
ENCODING 40
SWIDTH 562 0
DWIDTH 9 0
BBX 3 13 4 -3
BITMAP
20
40
40
80
80
80
80
80
80
80
40
40
20
ENDCHAR
STARTCHAR parenright
ENCODING 41
SWIDTH 562 0
DWIDTH 9 0
BBX 3 13 3 -3
BITMAP
80
40
40
20
20
20
20
20
20
20
40
40
80
ENDCHAR
STARTCHAR asterisk
ENCODING 42
SWIDTH 562 0
DWIDTH 9 0
BBX 7 5 1 3
BITMAP
6C
38
FE
38
6C
ENDCHAR
STARTCHAR plus
ENCODING 43
SWIDTH 562 0
DWIDTH 9 0
BBX 7 7 1 1
BITMAP
10
10
10
FE
10
10
10
ENDCHAR
STARTCHAR comma
ENCODING 44
SWIDTH 562 0
DWIDTH 9 0
BBX 4 3 3 -1
BITMAP
70
60
C0
ENDCHAR
STARTCHAR hyphen
ENCODING 45
SWIDTH 562 0
DWIDTH 9 0
BBX 6 1 2 4
BITMAP
FC
ENDCHAR
STARTCHAR period
ENCODING 46
SWIDTH 562 0
DWIDTH 9 0
BBX 2 2 4 0
BITMAP
C0
C0
ENDCHAR
STARTCHAR slash
ENCODING 47
SWIDTH 562 0
DWIDTH 9 0
BBX 8 8 1 1
BITMAP
01
02
04
08
10
20
40
80
ENDCHAR
STARTCHAR zero
ENCODING 48
SWIDTH 562 0
DWIDTH 9 0
BBX 6 10 2 0
BITMAP
78
84
84
84
84
84
84
84
84
78
ENDCHAR
STARTCHAR one
ENCODING 49
SWIDTH 562 0
DWIDTH 9 0
BBX 5 10 3 0
BITMAP
20
E0
20
20
20
20
20
20
20
F8
ENDCHAR
STARTCHAR two
ENCODING 50
SWIDTH 562 0
DWIDTH 9 0
BBX 6 10 2 0
BITMAP
78
84
04
04
08
10
20
40
80
FC
ENDCHAR
STARTCHAR three
ENCODING 51
SWIDTH 562 0
DWIDTH 9 0
BBX 6 10 2 0
BITMAP
78
84
04
04
38
04
04
04
84
78
ENDCHAR
STARTCHAR four
ENCODING 52
SWIDTH 562 0
DWIDTH 9 0
BBX 6 10 2 0
BITMAP
08
18
28
28
48
88
FC
08
08
1C
ENDCHAR
STARTCHAR five
ENCODING 53
SWIDTH 562 0
DWIDTH 9 0
BBX 6 10 2 0
BITMAP
FC
80
80
80
F8
04
04
04
84
78
ENDCHAR
STARTCHAR six
ENCODING 54
SWIDTH 562 0
DWIDTH 9 0
BBX 6 10 2 0
BITMAP
38
40
80
80
B8
C4
84
84
84
78
ENDCHAR
STARTCHAR seven
ENCODING 55
SWIDTH 562 0
DWIDTH 9 0
BBX 6 10 2 0
BITMAP
FC
84
08
08
10
10
20
20
40
40
ENDCHAR
STARTCHAR eight
ENCODING 56
SWIDTH 562 0
DWIDTH 9 0
BBX 6 10 2 0
BITMAP
78
84
84
84
78
84
84
84
84
78
ENDCHAR
STARTCHAR nine
ENCODING 57
SWIDTH 562 0
DWIDTH 9 0
BBX 6 10 2 0
BITMAP
78
84
84
84
8C
74
04
04
08
70
ENDCHAR
STARTCHAR colon
ENCODING 58
SWIDTH 562 0
DWIDTH 9 0
BBX 2 7 4 0
BITMAP
C0
C0
00
00
00
C0
C0
ENDCHAR
STARTCHAR semicolon
ENCODING 59
SWIDTH 562 0
DWIDTH 9 0
BBX 4 8 3 -1
BITMAP
60
60
00
00
00
70
60
C0
ENDCHAR
STARTCHAR less
ENCODING 60
SWIDTH 562 0
DWIDTH 9 0
BBX 5 9 2 0
BITMAP
08
10
20
40
80
40
20
10
08
ENDCHAR
STARTCHAR equal
ENCODING 61
SWIDTH 562 0
DWIDTH 9 0
BBX 6 3 2 3
BITMAP
FC
00
FC
ENDCHAR
STARTCHAR greater
ENCODING 62
SWIDTH 562 0
DWIDTH 9 0
BBX 5 9 2 0
BITMAP
80
40
20
10
08
10
20
40
80
ENDCHAR
STARTCHAR question
ENCODING 63
SWIDTH 562 0
DWIDTH 9 0
BBX 6 10 2 0
BITMAP
78
84
04
04
08
10
20
20
00
20
ENDCHAR
STARTCHAR at
ENCODING 64
SWIDTH 562 0
DWIDTH 9 0
BBX 8 11 1 -1
BITMAP
3C
42
81
9D
A5
A5
A5
9A
80
40
3E
ENDCHAR
STARTCHAR A
ENCODING 65
SWIDTH 562 0
DWIDTH 9 0
BBX 9 10 0 0
BITMAP
3800
0800
1400
1400
2200
2200
3E00
4100
4100
E380
ENDCHAR
STARTCHAR B
ENCODING 66
SWIDTH 562 0
DWIDTH 9 0
BBX 7 10 1 0
BITMAP
FC
42
42
42
7C
42
42
42
42
FC
ENDCHAR
STARTCHAR C
ENCODING 67
SWIDTH 562 0
DWIDTH 9 0
BBX 7 10 1 0
BITMAP
3A
46
82
82
80
80
80
80
42
3C
ENDCHAR
STARTCHAR D
ENCODING 68
SWIDTH 562 0
DWIDTH 9 0
BBX 7 10 1 0
BITMAP
F8
44
42
42
42
42
42
42
44
F8
ENDCHAR
STARTCHAR E
ENCODING 69
SWIDTH 562 0
DWIDTH 9 0
BBX 7 10 1 0
BITMAP
FE
42
40
48
78
48
40
40
42
FE
ENDCHAR
STARTCHAR F
ENCODING 70
SWIDTH 562 0
DWIDTH 9 0
BBX 7 10 1 0
BITMAP
FE
42
40
48
78
48
40
40
40
F0
ENDCHAR
STARTCHAR G
ENCODING 71
SWIDTH 562 0
DWIDTH 9 0
BBX 8 10 1 0
BITMAP
3A
46
82
82
80
8F
82
82
42
3C
ENDCHAR
STARTCHAR H
ENCODING 72
SWIDTH 562 0
DWIDTH 9 0
BBX 9 10 0 0
BITMAP
E380
4100
4100
4100
7F00
4100
4100
4100
4100
E380
ENDCHAR
STARTCHAR I
ENCODING 73
SWIDTH 562 0
DWIDTH 9 0
BBX 5 10 2 0
BITMAP
F8
20
20
20
20
20
20
20
20
F8
ENDCHAR
STARTCHAR J
ENCODING 74
SWIDTH 562 0
DWIDTH 9 0
BBX 8 10 1 0
BITMAP
1F
04
04
04
04
04
04
84
84
78
ENDCHAR
STARTCHAR K
ENCODING 75
SWIDTH 562 0
DWIDTH 9 0
BBX 8 10 1 0
BITMAP
EE
44
48
48
50
70
48
44
42
E3
ENDCHAR
STARTCHAR L
ENCODING 76
SWIDTH 562 0
DWIDTH 9 0
BBX 7 10 1 0
BITMAP
F0
40
40
40
40
40
40
40
42
FE
ENDCHAR
STARTCHAR M
ENCODING 77
SWIDTH 562 0
DWIDTH 9 0
BBX 9 10 0 0
BITMAP
C180
4100
6300
6300
5500
5500
4900
4900
4100
E380
ENDCHAR
STARTCHAR N
ENCODING 78
SWIDTH 562 0
DWIDTH 9 0
BBX 9 10 0 0
BITMAP
C780
4100
6100
5100
5100
4900
4500
4500
4300
F100
ENDCHAR
STARTCHAR O
ENCODING 79
SWIDTH 562 0
DWIDTH 9 0
BBX 7 10 1 0
BITMAP
38
44
82
82
82
82
82
82
44
38
ENDCHAR
STARTCHAR P
ENCODING 80
SWIDTH 562 0
DWIDTH 9 0
BBX 7 10 1 0
BITMAP
FC
42
42
42
42
7C
40
40
40
F0
ENDCHAR
STARTCHAR Q
ENCODING 81
SWIDTH 562 0
DWIDTH 9 0
BBX 7 12 1 -2
BITMAP
38
44
82
82
82
82
82
82
44
38
18
66
ENDCHAR
STARTCHAR R
ENCODING 82
SWIDTH 562 0
DWIDTH 9 0
BBX 8 10 1 0
BITMAP
FC
42
42
42
42
7C
48
44
42
E3
ENDCHAR
STARTCHAR S
ENCODING 83
SWIDTH 562 0
DWIDTH 9 0
BBX 7 10 1 0
BITMAP
7A
86
82
80
70
0C
02
82
C2
BC
ENDCHAR
STARTCHAR T
ENCODING 84
SWIDTH 562 0
DWIDTH 9 0
BBX 9 10 0 0
BITMAP
FF80
8880
0800
0800
0800
0800
0800
0800
0800
3E00
ENDCHAR
STARTCHAR U
ENCODING 85
SWIDTH 562 0
DWIDTH 9 0
BBX 9 10 0 0
BITMAP
E380
4100
4100
4100
4100
4100
4100
4100
6300
1C00
ENDCHAR
STARTCHAR V
ENCODING 86
SWIDTH 562 0
DWIDTH 9 0
BBX 9 10 0 0
BITMAP
E380
4100
4100
2200
2200
2200
1400
1400
0800
0800
ENDCHAR
STARTCHAR W
ENCODING 87
SWIDTH 562 0
DWIDTH 9 0
BBX 9 10 0 0
BITMAP
C180
8080
8880
8880
5500
5500
5500
2200
2200
2200
ENDCHAR
STARTCHAR X
ENCODING 88
SWIDTH 562 0
DWIDTH 9 0
BBX 9 10 0 0
BITMAP
E380
4100
2200
1400
0800
0800
1400
2200
4100
E380
ENDCHAR
STARTCHAR Y
ENCODING 89
SWIDTH 562 0
DWIDTH 9 0
BBX 9 10 0 0
BITMAP
E380
4100
2200
2200
1400
0800
0800
0800
0800
3E00
ENDCHAR
STARTCHAR Z
ENCODING 90
SWIDTH 562 0
DWIDTH 9 0
BBX 7 10 1 0
BITMAP
FE
82
04
08
10
10
20
40
82
FE
ENDCHAR
STARTCHAR bracketleft
ENCODING 91
SWIDTH 562 0
DWIDTH 9 0
BBX 3 13 4 -3
BITMAP
E0
80
80
80
80
80
80
80
80
80
80
80
E0
ENDCHAR
STARTCHAR backslash
ENCODING 92
SWIDTH 562 0
DWIDTH 9 0
BBX 8 8 1 1
BITMAP
80
40
20
10
08
04
02
01
ENDCHAR
STARTCHAR bracketright
ENCODING 93
SWIDTH 562 0
DWIDTH 9 0
BBX 3 13 3 -3
BITMAP
E0
20
20
20
20
20
20
20
20
20
20
20
E0
ENDCHAR
STARTCHAR asciicircum
ENCODING 94
SWIDTH 562 0
DWIDTH 9 0
BBX 7 4 1 6
BITMAP
10
28
44
82
ENDCHAR
STARTCHAR underscore
ENCODING 95
SWIDTH 562 0
DWIDTH 9 0
BBX 9 1 0 -2
BITMAP
FF80
ENDCHAR
STARTCHAR grave
ENCODING 96
SWIDTH 562 0
DWIDTH 9 0
BBX 2 2 3 8
BITMAP
80
40
ENDCHAR
STARTCHAR a
ENCODING 97
SWIDTH 562 0
DWIDTH 9 0
BBX 7 7 1 0
BITMAP
78
04
7C
84
84
84
7A
ENDCHAR
STARTCHAR b
ENCODING 98
SWIDTH 562 0
DWIDTH 9 0
BBX 7 10 1 0
BITMAP
C0
40
40
58
66
42
42
42
66
D8
ENDCHAR
STARTCHAR c
ENCODING 99
SWIDTH 562 0
DWIDTH 9 0
BBX 7 7 1 0
BITMAP
3A
C6
80
80
80
C6
38
ENDCHAR
STARTCHAR d
ENCODING 100
SWIDTH 562 0
DWIDTH 9 0
BBX 7 10 1 0
BITMAP
0C
04
04
34
CC
84
84
84
CC
36
ENDCHAR
STARTCHAR e
ENCODING 101
SWIDTH 562 0
DWIDTH 9 0
BBX 7 7 1 0
BITMAP
38
C6
82
FE
80
C6
38
ENDCHAR
STARTCHAR f
ENCODING 102
SWIDTH 562 0
DWIDTH 9 0
BBX 6 10 2 0
BITMAP
38
44
40
40
F0
40
40
40
40
F0
ENDCHAR
STARTCHAR g
ENCODING 103
SWIDTH 562 0
DWIDTH 9 0
BBX 7 10 1 -3
BITMAP
36
CC
84
84
CC
34
04
84
84
78
ENDCHAR
STARTCHAR h
ENCODING 104
SWIDTH 562 0
DWIDTH 9 0
BBX 7 10 1 0
BITMAP
C0
40
40
58
64
44
44
44
44
EE
ENDCHAR
STARTCHAR i
ENCODING 105
SWIDTH 562 0
DWIDTH 9 0
BBX 5 10 2 0
BITMAP
20
00
00
E0
20
20
20
20
20
F8
ENDCHAR
STARTCHAR j
ENCODING 106
SWIDTH 562 0
DWIDTH 9 0
BBX 5 13 1 -3
BITMAP
08
00
00
38
08
08
08
08
08
08
08
88
70
ENDCHAR
STARTCHAR k
ENCODING 107
SWIDTH 562 0
DWIDTH 9 0
BBX 7 10 1 0
BITMAP
C0
40
40
4E
48
50
70
48
44
EE
ENDCHAR
STARTCHAR l
ENCODING 108
SWIDTH 562 0
DWIDTH 9 0
BBX 5 10 2 0
BITMAP
E0
20
20
20
20
20
20
20
20
F8
ENDCHAR
STARTCHAR m
ENCODING 109
SWIDTH 562 0
DWIDTH 9 0
BBX 9 7 0 0
BITMAP
DB00
6D00
4900
4900
4900
4900
ED80
ENDCHAR
STARTCHAR n
ENCODING 110
SWIDTH 562 0
DWIDTH 9 0
BBX 7 7 1 0
BITMAP
D8
64
44
44
44
44
EE
ENDCHAR
STARTCHAR o
ENCODING 111
SWIDTH 562 0
DWIDTH 9 0
BBX 7 7 1 0
BITMAP
38
C6
82
82
82
C6
38
ENDCHAR
STARTCHAR p
ENCODING 112
SWIDTH 562 0
DWIDTH 9 0
BBX 7 10 1 -3
BITMAP
D8
66
42
42
42
66
58
40
40
F0
ENDCHAR
STARTCHAR q
ENCODING 113
SWIDTH 562 0
DWIDTH 9 0
BBX 7 10 1 -3
BITMAP
36
CC
84
84
84
CC
34
04
04
1E
ENDCHAR
STARTCHAR r
ENCODING 114
SWIDTH 562 0
DWIDTH 9 0
BBX 8 7 1 0
BITMAP
EE
31
20
20
20
20
F8
ENDCHAR
STARTCHAR s
ENCODING 115
SWIDTH 562 0
DWIDTH 9 0
BBX 7 7 1 0
BITMAP
7C
82
80
7C
02
82
7C
ENDCHAR
STARTCHAR t
ENCODING 116
SWIDTH 562 0
DWIDTH 9 0
BBX 7 9 1 0
BITMAP
20
20
FC
20
20
20
20
22
1C
ENDCHAR
STARTCHAR u
ENCODING 117
SWIDTH 562 0
DWIDTH 9 0
BBX 7 7 1 0
BITMAP
CC
44
44
44
44
4C
36
ENDCHAR
STARTCHAR v
ENCODING 118
SWIDTH 562 0
DWIDTH 9 0
BBX 9 7 0 0
BITMAP
E380
4100
2200
2200
1400
1400
0800
ENDCHAR
STARTCHAR w
ENCODING 119
SWIDTH 562 0
DWIDTH 9 0
BBX 9 7 0 0
BITMAP
EB80
4900
5500
5500
5500
2200
2200
ENDCHAR
STARTCHAR x
ENCODING 120
SWIDTH 562 0
DWIDTH 9 0
BBX 7 7 1 0
BITMAP
EE
44
28
10
28
44
EE
ENDCHAR
STARTCHAR y
ENCODING 121
SWIDTH 562 0
DWIDTH 9 0
BBX 9 10 0 -3
BITMAP
E380
4100
2200
2200
1400
1400
0800
0800
1000
6000
ENDCHAR
STARTCHAR z
ENCODING 122
SWIDTH 562 0
DWIDTH 9 0
BBX 7 7 1 0
BITMAP
FE
84
08
10
20
42
FE
ENDCHAR
STARTCHAR braceleft
ENCODING 123
SWIDTH 562 0
DWIDTH 9 0
BBX 5 13 2 -3
BITMAP
18
20
20
20
20
20
C0
20
20
20
20
20
18
ENDCHAR
STARTCHAR bar
ENCODING 124
SWIDTH 562 0
DWIDTH 9 0
BBX 1 13 4 -3
BITMAP
80
80
80
80
80
80
80
80
80
80
80
80
80
ENDCHAR
STARTCHAR braceright
ENCODING 125
SWIDTH 562 0
DWIDTH 9 0
BBX 5 13 3 -3
BITMAP
C0
20
20
20
20
20
18
20
20
20
20
20
C0
ENDCHAR
STARTCHAR asciitilde
ENCODING 126
SWIDTH 562 0
DWIDTH 9 0
BBX 7 3 1 7
BITMAP
62
92
8C
ENDCHAR
STARTCHAR bullet
ENCODING 149
SWIDTH 562 0
DWIDTH 9 0
BBX 5 4 2 3
BITMAP
70
F8
F8
70
ENDCHAR
STARTCHAR space
ENCODING 154
SWIDTH 562 0
DWIDTH 9 0
BBX 0 0 0 0
BITMAP
ENDCHAR
STARTCHAR degree
ENCODING 156
SWIDTH 562 0
DWIDTH 9 0
BBX 4 4 3 6
BITMAP
60
90
90
60
ENDCHAR
STARTCHAR twosuperior
ENCODING 157
SWIDTH 562 0
DWIDTH 9 0
BBX 4 6 3 4
BITMAP
60
90
10
20
40
F0
ENDCHAR
STARTCHAR periodcentered
ENCODING 158
SWIDTH 562 0
DWIDTH 9 0
BBX 2 2 3 3
BITMAP
C0
C0
ENDCHAR
STARTCHAR afii10071
ENCODING 163
SWIDTH 562 0
DWIDTH 9 0
BBX 7 9 1 0
BITMAP
6C
00
38
C6
82
FE
80
C6
38
ENDCHAR
STARTCHAR afii10023
ENCODING 179
SWIDTH 562 0
DWIDTH 9 0
BBX 7 12 1 0
BITMAP
6C
00
FE
42
40
48
78
48
40
40
42
FE
ENDCHAR
STARTCHAR copyright
ENCODING 191
SWIDTH 562 0
DWIDTH 9 0
BBX 8 10 1 1
BITMAP
3C
42
99
A5
A1
A1
A5
99
42
3C
ENDCHAR
STARTCHAR afii10096
ENCODING 192
SWIDTH 562 0
DWIDTH 9 0
BBX 9 7 0 0
BITMAP
E700
4880
4880
7880
4880
4880
E700
ENDCHAR
STARTCHAR afii10065
ENCODING 193
SWIDTH 562 0
DWIDTH 9 0
BBX 7 7 1 0
BITMAP
78
04
7C
84
84
84
7A
ENDCHAR
STARTCHAR afii10066
ENCODING 194
SWIDTH 562 0
DWIDTH 9 0
BBX 6 10 2 0
BITMAP
0C
70
80
B8
C4
84
84
84
84
78
ENDCHAR
STARTCHAR afii10088
ENCODING 195
SWIDTH 562 0
DWIDTH 9 0
BBX 8 9 1 -2
BITMAP
E7
42
42
42
42
42
FF
01
01
ENDCHAR
STARTCHAR afii10069
ENCODING 196
SWIDTH 562 0
DWIDTH 9 0
BBX 8 9 1 -2
BITMAP
7F
22
22
22
22
42
FF
81
81
ENDCHAR
STARTCHAR afii10070
ENCODING 197
SWIDTH 562 0
DWIDTH 9 0
BBX 7 7 1 0
BITMAP
38
C6
82
FE
80
C6
38
ENDCHAR
STARTCHAR afii10086
ENCODING 198
SWIDTH 562 0
DWIDTH 9 0
BBX 7 12 1 -3
BITMAP
38
10
7C
92
92
92
92
92
7C
10
10
38
ENDCHAR
STARTCHAR afii10068
ENCODING 199
SWIDTH 562 0
DWIDTH 9 0
BBX 7 7 1 0
BITMAP
FE
42
40
40
40
40
E0
ENDCHAR
STARTCHAR afii10087
ENCODING 200
SWIDTH 562 0
DWIDTH 9 0
BBX 7 7 1 0
BITMAP
EE
44
28
10
28
44
EE
ENDCHAR
STARTCHAR afii10074
ENCODING 201
SWIDTH 562 0
DWIDTH 9 0
BBX 8 7 1 0
BITMAP
E7
42
46
4A
52
62
E7
ENDCHAR
STARTCHAR afii10075
ENCODING 202
SWIDTH 562 0
DWIDTH 9 0
BBX 8 10 1 0
BITMAP
24
18
00
E7
42
46
4A
52
62
E7
ENDCHAR
STARTCHAR afii10076
ENCODING 203
SWIDTH 562 0
DWIDTH 9 0
BBX 7 7 1 0
BITMAP
EE
48
50
70
48
44
EE
ENDCHAR
STARTCHAR afii10077
ENCODING 204
SWIDTH 562 0
DWIDTH 9 0
BBX 8 7 1 0
BITMAP
7F
22
22
22
22
A2
C7
ENDCHAR
STARTCHAR afii10078
ENCODING 205
SWIDTH 562 0
DWIDTH 9 0
BBX 9 7 0 0
BITMAP
C180
6300
5500
4900
4900
4100
E380
ENDCHAR
STARTCHAR afii10079
ENCODING 206
SWIDTH 562 0
DWIDTH 9 0
BBX 8 7 1 0
BITMAP
E7
42
42
7E
42
42
E7
ENDCHAR
STARTCHAR afii10080
ENCODING 207
SWIDTH 562 0
DWIDTH 9 0
BBX 7 7 1 0
BITMAP
38
C6
82
82
82
C6
38
ENDCHAR
STARTCHAR afii10081
ENCODING 208
SWIDTH 562 0
DWIDTH 9 0
BBX 8 7 1 0
BITMAP
FF
42
42
42
42
42
E7
ENDCHAR
STARTCHAR afii10097
ENCODING 209
SWIDTH 562 0
DWIDTH 9 0
BBX 8 7 1 0
BITMAP
3F
42
42
3E
22
42
C7
ENDCHAR
STARTCHAR afii10082
ENCODING 210
SWIDTH 562 0
DWIDTH 9 0
BBX 7 10 1 -3
BITMAP
D8
64
42
42
42
64
58
40
40
F0
ENDCHAR
STARTCHAR afii10083
ENCODING 211
SWIDTH 562 0
DWIDTH 9 0
BBX 7 7 1 0
BITMAP
3A
C6
80
80
80
C6
38
ENDCHAR
STARTCHAR afii10084
ENCODING 212
SWIDTH 562 0
DWIDTH 9 0
BBX 7 7 1 0
BITMAP
FE
92
10
10
10
10
38
ENDCHAR
STARTCHAR afii10085
ENCODING 213
SWIDTH 562 0
DWIDTH 9 0
BBX 9 10 0 -3
BITMAP
E380
4100
2200
2200
1400
1400
0800
0800
1000
6000
ENDCHAR
STARTCHAR afii10072
ENCODING 214
SWIDTH 562 0
DWIDTH 9 0
BBX 9 7 0 0
BITMAP
C980
4900
2A00
1C00
2A00
4900
C980
ENDCHAR
STARTCHAR afii10067
ENCODING 215
SWIDTH 562 0
DWIDTH 9 0
BBX 7 7 1 0
BITMAP
FC
42
42
7C
42
42
FC
ENDCHAR
STARTCHAR afii10094
ENCODING 216
SWIDTH 562 0
DWIDTH 9 0
BBX 7 7 1 0
BITMAP
E0
40
7C
42
42
42
FC
ENDCHAR
STARTCHAR afii10093
ENCODING 217
SWIDTH 562 0
DWIDTH 9 0
BBX 9 7 0 0
BITMAP
E380
4100
7900
4500
4500
4500
FB80
ENDCHAR
STARTCHAR afii10073
ENCODING 218
SWIDTH 562 0
DWIDTH 9 0
BBX 7 7 1 0
BITMAP
FC
82
02
3C
02
82
7C
ENDCHAR
STARTCHAR afii10090
ENCODING 219
SWIDTH 562 0
DWIDTH 9 0
BBX 9 7 0 0
BITMAP
EB80
4900
4900
4900
4900
4900
FF80
ENDCHAR
STARTCHAR afii10095
ENCODING 220
SWIDTH 562 0
DWIDTH 9 0
BBX 7 7 1 0
BITMAP
7C
82
02
1E
02
82
7C
ENDCHAR
STARTCHAR afii10091
ENCODING 221
SWIDTH 562 0
DWIDTH 9 0
BBX 9 9 0 -2
BITMAP
EB80
4900
4900
4900
4900
4900
FF80
0080
0080
ENDCHAR
STARTCHAR afii10089
ENCODING 222
SWIDTH 562 0
DWIDTH 9 0
BBX 8 7 1 0
BITMAP
E7
42
42
46
3A
02
07
ENDCHAR
STARTCHAR afii10092
ENCODING 223
SWIDTH 562 0
DWIDTH 9 0
BBX 7 7 1 0
BITMAP
F0
A0
3C
22
22
22
7C
ENDCHAR
STARTCHAR afii10048
ENCODING 224
SWIDTH 562 0
DWIDTH 9 0
BBX 9 10 0 0
BITMAP
E700
4880
4880
4880
7880
4880
4880
4880
4880
E700
ENDCHAR
STARTCHAR afii10017
ENCODING 225
SWIDTH 562 0
DWIDTH 9 0
BBX 9 10 0 0
BITMAP
0800
0800
1400
1400
2200
2200
3E00
4100
4100
E380
ENDCHAR
STARTCHAR afii10018
ENCODING 226
SWIDTH 562 0
DWIDTH 9 0
BBX 7 10 1 0
BITMAP
FE
42
40
40
7C
42
42
42
42
FC
ENDCHAR
STARTCHAR afii10040
ENCODING 227
SWIDTH 562 0
DWIDTH 9 0
BBX 9 12 0 -2
BITMAP
E380
4100
4100
4100
4100
4100
4100
4100
4100
FF80
0080
0080
ENDCHAR
STARTCHAR afii10021
ENCODING 228
SWIDTH 562 0
DWIDTH 9 0
BBX 8 12 1 -2
BITMAP
7F
22
22
22
22
22
22
22
42
FF
81
81
ENDCHAR
STARTCHAR afii10022
ENCODING 229
SWIDTH 562 0
DWIDTH 9 0
BBX 7 10 1 0
BITMAP
FE
42
40
48
78
48
40
40
42
FE
ENDCHAR
STARTCHAR afii10038
ENCODING 230
SWIDTH 562 0
DWIDTH 9 0
BBX 9 12 0 0
BITMAP
1C00
0800
3E00
4900
8880
8880
8880
8880
4900
3E00
0800
1C00
ENDCHAR
STARTCHAR afii10020
ENCODING 231
SWIDTH 562 0
DWIDTH 9 0
BBX 7 10 1 0
BITMAP
FE
42
40
40
40
40
40
40
40
E0
ENDCHAR
STARTCHAR afii10039
ENCODING 232
SWIDTH 562 0
DWIDTH 9 0
BBX 9 10 0 0
BITMAP
E380
4100
2200
1400
0800
0800
1400
2200
4100
E380
ENDCHAR
STARTCHAR afii10026
ENCODING 233
SWIDTH 562 0
DWIDTH 9 0
BBX 9 10 0 0
BITMAP
E380
4100
4100
4300
4500
4900
5100
6100
4100
E380
ENDCHAR
STARTCHAR afii10027
ENCODING 234
SWIDTH 562 0
DWIDTH 9 0
BBX 9 12 0 0
BITMAP
3600
1C00
E380
4100
4100
4300
4500
4900
5100
6100
4100
E380
ENDCHAR
STARTCHAR afii10028
ENCODING 235
SWIDTH 562 0
DWIDTH 9 0
BBX 8 10 1 0
BITMAP
EE
44
48
48
50
70
48
44
42
E3
ENDCHAR
STARTCHAR afii10029
ENCODING 236
SWIDTH 562 0
DWIDTH 9 0
BBX 9 10 0 0
BITMAP
7F80
2100
2100
2100
2100
2100
2100
2100
A100
C380
ENDCHAR
STARTCHAR afii10030
ENCODING 237
SWIDTH 562 0
DWIDTH 9 0
BBX 9 10 0 0
BITMAP
C180
4100
6300
6300
5500
5500
4900
4900
4100
E380
ENDCHAR
STARTCHAR afii10031
ENCODING 238
SWIDTH 562 0
DWIDTH 9 0
BBX 9 10 0 0
BITMAP
E380
4100
4100
4100
7F00
4100
4100
4100
4100
E380
ENDCHAR
STARTCHAR afii10032
ENCODING 239
SWIDTH 562 0
DWIDTH 9 0
BBX 7 10 1 0
BITMAP
38
44
82
82
82
82
82
82
44
38
ENDCHAR
STARTCHAR afii10033
ENCODING 240
SWIDTH 562 0
DWIDTH 9 0
BBX 9 10 0 0
BITMAP
FF80
4100
4100
4100
4100
4100
4100
4100
4100
E380
ENDCHAR
STARTCHAR afii10049
ENCODING 241
SWIDTH 562 0
DWIDTH 9 0
BBX 8 10 1 0
BITMAP
3F
42
42
42
42
3E
12
22
42
C7
ENDCHAR
STARTCHAR afii10034
ENCODING 242
SWIDTH 562 0
DWIDTH 9 0
BBX 7 10 1 0
BITMAP
FC
42
42
42
42
7C
40
40
40
F0
ENDCHAR
STARTCHAR afii10035
ENCODING 243
SWIDTH 562 0
DWIDTH 9 0
BBX 7 10 1 0
BITMAP
3A
46
82
82
80
80
80
80
42
3C
ENDCHAR
STARTCHAR afii10036
ENCODING 244
SWIDTH 562 0
DWIDTH 9 0
BBX 9 10 0 0
BITMAP
FF80
8880
0800
0800
0800
0800
0800
0800
0800
3E00
ENDCHAR
STARTCHAR afii10037
ENCODING 245
SWIDTH 562 0
DWIDTH 9 0
BBX 9 10 0 0
BITMAP
E380
4100
4100
2200
2200
1400
1400
0800
4800
3000
ENDCHAR
STARTCHAR afii10024
ENCODING 246
SWIDTH 562 0
DWIDTH 9 0
BBX 9 10 0 0
BITMAP
C980
4900
4900
2A00
1C00
2A00
2A00
4900
4900
C980
ENDCHAR
STARTCHAR afii10019
ENCODING 247
SWIDTH 562 0
DWIDTH 9 0
BBX 7 10 1 0
BITMAP
FC
42
42
42
7C
42
42
42
42
FC
ENDCHAR
STARTCHAR afii10046
ENCODING 248
SWIDTH 562 0
DWIDTH 9 0
BBX 7 10 1 0
BITMAP
E0
40
40
40
7C
42
42
42
42
FC
ENDCHAR
STARTCHAR afii10045
ENCODING 249
SWIDTH 562 0
DWIDTH 9 0
BBX 9 10 0 0
BITMAP
E380
4100
4100
4100
7900
4500
4500
4500
4500
FB80
ENDCHAR
STARTCHAR afii10025
ENCODING 250
SWIDTH 562 0
DWIDTH 9 0
BBX 7 10 1 0
BITMAP
BC
C2
82
02
3C
02
02
02
82
7C
ENDCHAR
STARTCHAR afii10042
ENCODING 251
SWIDTH 562 0
DWIDTH 9 0
BBX 9 10 0 0
BITMAP
EB80
4900
4900
4900
4900
4900
4900
4900
4900
FF80
ENDCHAR
STARTCHAR afii10047
ENCODING 252
SWIDTH 562 0
DWIDTH 9 0
BBX 7 10 1 0
BITMAP
38
44
82
02
3E
02
02
82
44
38
ENDCHAR
STARTCHAR afii10043
ENCODING 253
SWIDTH 562 0
DWIDTH 9 0
BBX 9 12 0 -2
BITMAP
EB80
4900
4900
4900
4900
4900
4900
4900
4900
FF80
0080
0080
ENDCHAR
STARTCHAR afii10041
ENCODING 254
SWIDTH 562 0
DWIDTH 9 0
BBX 9 10 0 0
BITMAP
E380
4100
4100
4100
4100
4300
3D00
0100
0100
0380
ENDCHAR
STARTCHAR afii10044
ENCODING 255
SWIDTH 562 0
DWIDTH 9 0
BBX 7 10 1 0
BITMAP
F0
A0
A0
20
3C
22
22
22
22
7C
ENDCHAR
ENDFONT
